<svg t="1689168409564" class="icon" viewBox="0 0 1024 1024" version="1.1" xmlns="http://www.w3.org/2000/svg" p-id="3329"  ><path d="M512.449956 124.087882c52.394883 0 103.189923 10.298994 150.985255 30.497022 46.195489 19.498096 87.691436 47.495362 123.287961 83.191876 35.696514 35.696514 63.59379 77.192462 83.191875 123.28796 20.198028 47.795332 30.497022 98.590372 30.497022 150.985255s-10.298994 103.189923-30.497022 150.985255c-19.498096 46.195489-47.495362 87.691436-83.191875 123.287961-35.696514 35.696514-77.192462 63.59379-123.287961 83.191875-47.795332 20.198028-98.590372 30.497022-150.985255 30.497022s-103.189923-10.298994-150.985255-30.497022c-46.195489-19.498096-87.691436-47.495362-123.28796-83.191875-35.696514-35.696514-63.59379-77.192462-83.191876-123.287961-20.198028-47.795332-30.497022-98.590372-30.497022-150.985255s10.298994-103.189923 30.497022-150.985255c19.498096-46.195489 47.495362-87.691436 83.191876-123.28796 35.696514-35.696514 77.192462-63.59379 123.28796-83.191876 47.795332-20.198028 98.590372-30.497022 150.985255-30.497022m0-59.994141c-247.375842 0-447.956254 200.580412-447.956254 447.956254s200.580412 447.956254 447.956254 447.956254 447.956254-200.580412 447.956254-447.956254-200.580412-447.956254-447.956254-447.956254z" fill="#ff0606" opacity=".502" p-id="3330"></path><path d="M569.54438 369.6639c-151.085246-94.990724-226.677863-47.495362-226.677863 142.486085s75.592618 237.476809 226.677863 142.486086 151.085246-189.981447 0-284.972171z" fill="#ff0606" p-id="3331"></path></svg>