<svg t="1691582091903" class="icon" viewBox="0 0 1024 1024" version="1.1" xmlns="http://www.w3.org/2000/svg" p-id="2763" width="35" height="35"><path d="M176.4352 100.5568m101.9392 0l552.3968 0q101.9392 0 101.9392 101.9392l0 626.2272q0 101.9392-101.9392 101.9392l-552.3968 0q-101.9392 0-101.9392-101.9392l0-626.2272q0-101.9392 101.9392-101.9392Z" fill="#42B4FA" p-id="2764"></path><path d="M251.8016 343.3984H127.5904a51.2 51.2 0 0 1 0-102.4h124.2112a51.2 51.2 0 1 1 0 102.4zM251.8016 566.272H127.5904a51.2 51.2 0 0 1 0-102.4h124.2112a51.2 51.2 0 1 1 0 102.4zM251.8016 789.1456H127.5904a51.2 51.2 0 0 1 0-102.4h124.2112a51.2 51.2 0 1 1 0 102.4z" fill="#92DBFF" p-id="2765"></path><path d="M763.7504 354.56l-53.504-42.752a28.3648 28.3648 0 0 0-39.8336 3.9936L468.0704 558.08a29.0304 29.0304 0 0 0-6.0416 12.1856l-16.0768 71.68A28.9792 28.9792 0 0 0 455.68 670.72a28.6208 28.6208 0 0 0 24.32 5.9392 26.0608 26.0608 0 0 0 5.632-1.8944l74.0864-33.1776a28.5696 28.5696 0 0 0 10.24-7.8336L768 395.776a29.0816 29.0816 0 0 0-4.2496-40.96z" fill="#FFFFFF" p-id="2766"></path></svg>