<svg t="1691582075158" class="icon" viewBox="0 0 1024 1024" version="1.1" xmlns="http://www.w3.org/2000/svg" p-id="2493" width="35" height="35"><path d="M58.9824 113.5104m105.216 0l690.8928 0q105.216 0 105.216 105.216l0 0.0512q0 105.216-105.216 105.216l-690.8928 0q-105.216 0-105.216-105.216l0-0.0512q0-105.216 105.216-105.216Z" fill="#9076F8" p-id="2494"></path><path d="M161.8432 222.6688m92.16 0l503.1424 0q92.16 0 92.16 92.16l0 515.2768q0 92.16-92.16 92.16l-503.1424 0q-92.16 0-92.16-92.16l0-515.2768q0-92.16 92.16-92.16Z" fill="#C7B0FF" p-id="2495"></path><path d="M546.4064 481.792h-235.52a40.96 40.96 0 1 1 0-81.92h235.52a40.96 40.96 0 0 1 0 81.92zM696.32 663.552H310.9376a40.96 40.96 0 1 1 0-81.92H696.32a40.96 40.96 0 0 1 0 81.92z" fill="#FFFFFF" p-id="2496"></path></svg>