<svg t="1689146420459" class="icon" viewBox="0 0 1090 1024" version="1.1" xmlns="http://www.w3.org/2000/svg" p-id="5877"  ><path d="M946.754112 1024H138.541298a49.715777 49.715777 0 0 1-49.715777-49.715777V402.22135a24.857888 24.857888 0 0 1 24.857889-24.857888h857.92859a24.857888 24.857888 0 0 1 24.857889 24.857888v572.062873a49.715777 49.715777 0 0 1-49.715777 49.715777z m0-49.715777zM138.541298 426.582081v547.702142h808.047094V426.582081z" fill="#3D3D3D" p-id="5878"></path><path d="M590.62343 215.12431h-66.287703V126.464508a55.68167 55.68167 0 1 0-111.36334 0v88.659802h-66.287703V126.464508a121.969373 121.969373 0 0 1 243.938746 0z" fill="#F683A2" p-id="5879"></path><path d="M768.108753 215.12431h-66.287702V126.464508a55.68167 55.68167 0 1 0-111.197621 0v88.659802h-66.287703V126.464508a121.969373 121.969373 0 1 1 243.773026 0z" fill="#F683A2" p-id="5880"></path><path d="M1035.579633 417.467522H49.715777a49.715777 49.715777 0 0 1-49.715777-49.715777v-127.769547a49.715777 49.715777 0 0 1 49.715777-49.715777h985.863856a49.715777 49.715777 0 0 1 49.715777 49.715777v127.769547a49.715777 49.715777 0 0 1-49.715777 49.715777z m0-49.715777zM49.715777 239.982198v127.769547h985.698137v-127.769547z" fill="#3D3D3D" p-id="5881"></path><path d="M524.335727 185.129124h66.287703v788.98938h-66.287703z" fill="#F683A2" p-id="5882"></path></svg>