<svg xmlns="http://www.w3.org/2000/svg" xmlns:xlink="http://www.w3.org/1999/xlink" width="13" height="16" viewBox="0 0 13 16" fill="none"><path id="形状" fill-rule="evenodd" style="fill:#CECECE" opacity="1" d="M13,8v6.4c0,0.88 -0.73,1.6 -1.62,1.6h-9.75c-0.9,0 -1.63,-0.72 -1.63,-1.6v-6.4c0,-0.57 0.31,-1.09 0.81,-1.38v-1.02c0,-3.09 2.55,-5.6 5.69,-5.6c3.14,0 5.69,2.51 5.69,5.6v1.02c0.5,0.29 0.81,0.81 0.81,1.38zM2.4375,5.59998v0.8h8.13v-0.8c0,-2.21 -1.82,-4 -4.07,-4c-2.24,0 -4.06,1.79 -4.06,4zM8.125,10.4c0,-0.87995 -0.73,-1.59995 -1.62,-1.59995c-0.9,0 -1.63,0.72 -1.63,1.59995c0,0.57 0.31,1.09 0.81,1.38v1.82h1.63v-1.82c0.5,-0.29 0.81,-0.81 0.81,-1.38z"></path></svg>