<svg t="1691581992288" class="icon" viewBox="0 0 1024 1024" version="1.1" xmlns="http://www.w3.org/2000/svg" p-id="1958" width="35" height="35"><path d="M948.7872 409.6l-111.5136-89.856V183.6544a60.672 60.672 0 0 0-121.2928 0v38.0928l-156.9792-126.8224a73.8816 73.8816 0 0 0-92.928 0L76.3392 409.6c-54.272 43.776-23.296 131.4816 46.4384 131.4816h53.248v309.76a84.5312 84.5312 0 0 0 84.5312 84.5312h503.9616a84.5312 84.5312 0 0 0 84.5312-84.5312v-309.76h53.248c69.7344 0.2048 100.7104-87.5008 46.4896-131.4816z" fill="#3DD5BB" p-id="1959"></path><path d="M679.2192 630.272l-118.1696 118.1184a68.5568 68.5568 0 0 1-97.28 0L345.2928 629.76a133.12 133.12 0 0 1 167.2704-205.824 133.12 133.12 0 0 1 166.656 206.336z" fill="#FFFFFF" p-id="1960"></path><path d="M837.2736 183.6544a60.672 60.672 0 0 0-121.2928 0v38.0928l121.2928 97.9456z" fill="#ADF0EA" p-id="1961"></path></svg>