<svg t="1691581931891" class="icon" viewBox="0 0 1024 1024" version="1.1" xmlns="http://www.w3.org/2000/svg" p-id="1472" width="35" height="35"><path d="M764.16 927.0272H256a124.0576 124.0576 0 0 1-124.1088-124.0576V221.0304A124.0576 124.0576 0 0 1 256 96.9728h440.32l191.744 189.44v516.5568a124.1088 124.1088 0 0 1-123.904 124.0576z" fill="#3DD5BB" p-id="1473"></path><path d="M696.32 96.9728V248.32a41.8304 41.8304 0 0 0 41.8304 41.8304h149.9136v-3.7376z" fill="#ADF0EA" p-id="1474"></path><path d="M666.7776 569.3952H332.8a40.96 40.96 0 0 1 0-81.92h334.08a40.96 40.96 0 0 1 0 81.92zM666.7776 787.0464H332.8a40.96 40.96 0 0 1 0-81.92h334.08a40.96 40.96 0 0 1 0 81.92zM522.24 351.744H332.8a40.96 40.96 0 0 1 0-81.92h189.44a40.96 40.96 0 0 1 0 81.92z" fill="#FFFFFF" p-id="1475"></path></svg>