<svg t="1691581856384" class="icon" viewBox="0 0 1024 1024" version="1.1" xmlns="http://www.w3.org/2000/svg" p-id="1201" width="35" height="35"><path d="M116.3776 86.3232m101.9392 0l552.3968 0q101.9392 0 101.9392 101.9392l0 626.2272q0 101.9392-101.9392 101.9392l-552.3968 0q-101.9392 0-101.9392-101.9392l0-626.2272q0-101.9392 101.9392-101.9392Z" fill="#FDBA54" p-id="1202"></path><path d="M527.9232 535.552h-235.52a40.96 40.96 0 0 1 0-81.92h235.52a40.96 40.96 0 0 1 0 81.92zM677.6832 353.792H292.4544a40.96 40.96 0 0 1 0-81.92h385.2288a40.96 40.96 0 1 1 0 81.92z" fill="#FFFFFF" p-id="1203"></path><path d="M726.6816 737.6384m-202.0352 0a202.0352 202.0352 0 1 0 404.0704 0 202.0352 202.0352 0 1 0-404.0704 0Z" fill="#FFDE8D" p-id="1204"></path><path d="M832.1024 684.6976L752.64 619.1104a40.96 40.96 0 0 0-51.968 0c-81.92 66.56-82.944 67.9936-87.04 73.6768a40.96 40.96 0 0 0 62.4128 52.6336c1.5872-1.3824 4.864-4.1984 9.4208-7.936v98.048a40.96 40.96 0 1 0 81.92 0v-97.8432l12.288 10.24a40.96 40.96 0 0 0 52.1728-63.1808z" fill="#FFFFFF" p-id="1205"></path></svg>