<svg t="1691582009131" class="icon" viewBox="0 0 1024 1024" version="1.1" xmlns="http://www.w3.org/2000/svg" p-id="2228" width="35" height="35"><path d="M137.9328 98.6624m101.9392 0l552.3968 0q101.9392 0 101.9392 101.9392l0 626.2272q0 101.9392-101.9392 101.9392l-552.3968 0q-101.9392 0-101.9392-101.9392l0-626.2272q0-101.9392 101.9392-101.9392Z" fill="#42B4FA" p-id="2229"></path><path d="M480.5632 696.32a25.6 25.6 0 0 1-25.6-25.6v-146.9952a42.24 42.24 0 0 1 42.1888-42.1888h234.2912v-128h-80.2816a25.6 25.6 0 0 1 0-51.2h89.2928a42.2912 42.2912 0 0 1 42.1888 42.24v145.9712a42.24 42.24 0 0 1-42.1888 42.1888H506.1632V670.72a25.6 25.6 0 0 1-25.6 25.6z m259.8912-342.528z" fill="#92DBFF" p-id="2230"></path><path d="M257.024 223.488m34.304 0l378.4704 0q34.304 0 34.304 34.304l0 140.544q0 34.304-34.304 34.304l-378.4704 0q-34.304 0-34.304-34.304l0-140.544q0-34.304 34.304-34.304Z" fill="#FFFFFF" p-id="2231"></path><path d="M412.928 585.5744m24.7808 0l85.76 0q24.7808 0 24.7808 24.7808l0 173.9776q0 24.7808-24.7808 24.7808l-85.76 0q-24.7808 0-24.7808-24.7808l0-173.9776q0-24.7808 24.7808-24.7808Z" fill="#FFFFFF" p-id="2232"></path></svg>